# xmcd
#
# Track frame offsets: 
#        150
#        17242
#        36331
#        55859
#        79310
#        92997
#        110129
#        126248
#        147014
#        166429
#
# Disc length: 2472 seconds
#
# Revision: 0
# Processed by: cddbd v1.5.2PL0 Copyright (c) Steve Scherf et al.
# Submitted via: ExactAudioCopy v0.95b4
#
DISCID=8d09a60a
DTITLE=KennC - A Picture of You
DYEAR=2006
DGENRE=Blues
TTITLE0=Little Billy
TTITLE1=If I Can't Have You
TTITLE2=Mean
TTITLE3=What's The Occasion
TTITLE4=Fluen
TTITLE5=What's The Matter
TTITLE6=My Baby
TTITLE7=A Picture of You
TTITLE8=Down and Blue
TTITLE9=New Orleans
EXTD=
EXTT0=
EXTT1=
EXTT2=
EXTT3=
EXTT4=
EXTT5=
EXTT6=
EXTT7=
EXTT8=
EXTT9=
PLAYORDER=
